<?xml version="1.0" standalone="no"?>
<!DOCTYPE svg PUBLIC "-//W3C//DTD SVG 20010904//EN"
 "http://www.w3.org/TR/2001/REC-SVG-20010904/DTD/svg10.dtd">
<svg version="1.0" xmlns="http://www.w3.org/2000/svg"
 width="143.000000pt" height="143.000000pt" viewBox="0 0 143.000000 143.000000"
 preserveAspectRatio="xMidYMid meet">
<metadata>
Created by potrace 1.14, written by Peter Selinger 2001-2017
</metadata>
<g transform="translate(0.000000,143.000000) scale(0.100000,-0.100000)"
fill="#000000" stroke="none">
<path d="M753 1220 c-55 -22 -337 -332 -451 -496 -41 -58 -46 -62 -125 -89
-97 -34 -127 -51 -127 -75 0 -33 25 -43 67 -25 74 32 74 28 14 -68 -120 -190
-137 -231 -107 -256 23 -19 50 5 97 88 101 180 184 303 209 313 33 12 176 54
219 63 39 8 39 21 1 -175 -28 -147 -32 -260 -8 -283 35 -35 56 -13 63 69 3 32
7 70 10 84 3 14 7 48 11 75 3 28 8 52 9 55 2 3 6 23 9 45 4 22 12 65 19 95
l12 55 45 3 c52 4 70 16 70 47 0 25 -17 35 -61 35 -36 0 -37 -4 38 220 31 91
55 174 55 185 -1 11 -9 25 -18 32 -20 15 -21 15 -51 3z m-96 -302 l-52 -157
-65 -15 c-36 -8 -86 -22 -113 -30 l-47 -15 11 22 c16 30 94 132 143 187 61 68
167 173 171 169 2 -2 -20 -75 -48 -161z"/>
<path d="M1241 1198 c-83 -23 -235 -228 -370 -499 -114 -227 -150 -346 -121
-400 8 -14 21 -19 51 -19 35 0 47 7 93 52 53 54 104 129 111 167 7 39 -32 25
-62 -21 -15 -24 -43 -60 -62 -80 -62 -67 -84 -45 -51 51 20 56 35 75 149 189
135 135 240 272 298 388 43 87 49 134 22 163 -11 12 -21 21 -22 20 -1 0 -17
-5 -36 -11z m-1 -101 c0 -53 -139 -263 -255 -384 -71 -73 -74 -76 -58 -38 39
88 98 195 159 285 73 109 92 132 119 148 29 17 35 15 35 -11z"/>
<path d="M1347 966 c-48 -40 -63 -100 -27 -111 25 -8 53 8 79 44 20 28 29 80
14 82 -5 0 -15 2 -24 4 -9 1 -28 -7 -42 -19z"/>
<path d="M1225 704 c-54 -55 -150 -227 -184 -333 -25 -75 -26 -95 -8 -110 23
-18 44 8 73 89 30 86 79 186 127 263 43 66 48 82 34 96 -15 15 -23 14 -42 -5z"/>
</g>
</svg>
